<svg xmlns="http://www.w3.org/2000/svg" viewBox="0 0 760 540" role="img" aria-labelledby="title desc">
<title id="title">Zee section</title>
<desc id="desc">A zee section has bottom and top flanges on opposite sides of the web.</desc>
<defs>
<marker id="arrow" viewBox="0 0 10 10" refX="10" refY="5" markerWidth="7" markerHeight="7" markerUnits="userSpaceOnUse" orient="auto-start-reverse"><path d="M0 0L10 5L0 10Z" fill="#18344a"/></marker>
<pattern id="hatch" width="8" height="8" patternUnits="userSpaceOnUse" patternTransform="rotate(45)"><path d="M0 0V8" stroke="#bdcbd3" stroke-width="2"/></pattern>
</defs>
<rect width="760" height="540" fill="white"/>
<text x="28.00" y="34.00" font-family="Arial, Helvetica, sans-serif" font-size="23" text-anchor="start" fill="#18344a">Zee section</text>
<text x="28.00" y="62.00" font-family="Arial, Helvetica, sans-serif" font-size="15" text-anchor="start" fill="#18344a">A zee section has bottom and top flanges on opposite sides of the web.</text>
<rect x="140" y="380" width="564" height="12.75" fill="#f3f6f8" stroke="#a2b1ba"/>
<rect x="140" y="380" width="564" height="12.75" fill="url(#hatch)"/>
<text x="704.00" y="368.00" font-family="Arial, Helvetica, sans-serif" font-size="16" text-anchor="end" fill="#18344a">Skin face · z = 0</text>
<path d="M62 414V354" fill="none" stroke="#18344a" stroke-width="1.5" marker-end="url(#arrow)"/>
<path d="M62 414H112" fill="none" stroke="#18344a" stroke-width="1.5" marker-end="url(#arrow)"/>
<text x="120.00" y="420.00" font-family="Arial, Helvetica, sans-serif" font-size="17" text-anchor="start" fill="#18344a">+y</text>
<text x="44.00" y="342.00" font-family="Arial, Helvetica, sans-serif" font-size="17" text-anchor="start" fill="#18344a">+z</text>
<polygon points="239.23,356.10 346.77,356.10 346.77,380.00 239.23,380.00" fill="#dfedf3" stroke="#176b87" stroke-width="2"/>
<line x1="239.23" y1="368.05" x2="346.77" y2="368.05" stroke="#176b87" stroke-width="1" stroke-dasharray="6 4"/>
<polygon points="337.21,356.10 337.21,168.90 356.33,168.90 356.33,356.10" fill="#dfedf3" stroke="#176b87" stroke-width="2"/>
<line x1="346.77" y1="356.10" x2="346.77" y2="168.90" stroke="#176b87" stroke-width="1" stroke-dasharray="6 4"/>
<polygon points="346.77,145.00 440.77,145.00 440.77,168.90 346.77,168.90" fill="#dfedf3" stroke="#176b87" stroke-width="2"/>
<line x1="346.77" y1="156.95" x2="440.77" y2="156.95" stroke="#176b87" stroke-width="1" stroke-dasharray="6 4"/>
<line x1="239.23" y1="368.05" x2="239.23" y2="409.47" stroke="#71828c" stroke-width="1"/>
<line x1="346.77" y1="368.05" x2="346.77" y2="409.47" stroke="#71828c" stroke-width="1"/>
<line x1="239.23" y1="409.47" x2="346.77" y2="409.47" stroke="#18344a" stroke-width="1" marker-start="url(#arrow)" marker-end="url(#arrow)"/>
<text x="293.00" y="426.47" font-family="Arial, Helvetica, sans-serif" font-size="20" text-anchor="middle" fill="#18344a">b<tspan baseline-shift="sub" font-size="13">b</tspan></text>
<line x1="346.77" y1="156.95" x2="346.77" y2="113.14" stroke="#71828c" stroke-width="1"/>
<line x1="440.77" y1="156.95" x2="440.77" y2="113.14" stroke="#71828c" stroke-width="1"/>
<line x1="346.77" y1="113.14" x2="440.77" y2="113.14" stroke="#18344a" stroke-width="1" marker-start="url(#arrow)" marker-end="url(#arrow)"/>
<text x="393.77" y="101.14" font-family="Arial, Helvetica, sans-serif" font-size="20" text-anchor="middle" fill="#18344a">b<tspan baseline-shift="sub" font-size="13">t</tspan></text>
<line x1="346.77" y1="356.10" x2="293.40" y2="356.10" stroke="#71828c" stroke-width="1"/>
<line x1="346.77" y1="168.90" x2="293.40" y2="168.90" stroke="#71828c" stroke-width="1"/>
<line x1="293.40" y1="356.10" x2="293.40" y2="168.90" stroke="#18344a" stroke-width="1" marker-start="url(#arrow)" marker-end="url(#arrow)"/>
<text x="275.40" y="267.50" font-family="Arial, Helvetica, sans-serif" font-size="20" text-anchor="end" fill="#18344a">h<tspan baseline-shift="sub" font-size="13">w</tspan></text>
<line x1="337.21" y1="280.42" x2="337.21" y2="305.92" stroke="#71828c" stroke-width="1"/>
<line x1="356.33" y1="280.42" x2="356.33" y2="305.92" stroke="#71828c" stroke-width="1"/>
<line x1="337.21" y1="305.92" x2="356.33" y2="305.92" stroke="#18344a" stroke-width="1" marker-start="url(#arrow)" marker-end="url(#arrow)"/>
<line x1="356.33" y1="305.92" x2="404.77" y2="305.92" stroke="#71828c" stroke-width="1"/>
<text x="411.77" y="309.92" font-family="Arial, Helvetica, sans-serif" font-size="20" text-anchor="start" fill="#18344a">t<tspan baseline-shift="sub" font-size="13">w</tspan></text>
<line x1="440.77" y1="168.90" x2="468.65" y2="168.90" stroke="#71828c" stroke-width="1"/>
<line x1="440.77" y1="145.00" x2="468.65" y2="145.00" stroke="#71828c" stroke-width="1"/>
<line x1="468.65" y1="168.90" x2="468.65" y2="145.00" stroke="#18344a" stroke-width="1" marker-start="url(#arrow)" marker-end="url(#arrow)"/>
<text x="482.65" y="161.95" font-family="Arial, Helvetica, sans-serif" font-size="20" text-anchor="start" fill="#18344a">t<tspan baseline-shift="sub" font-size="13">f</tspan></text>
<circle cx="342.89" cy="266.57" r="5" fill="#b65020" stroke="white" stroke-width="1"/>
<text x="362.89" y="257.57" font-family="Arial, Helvetica, sans-serif" font-size="20" text-anchor="start" fill="#b65020">C</text>
<line x1="28.00" y1="458.00" x2="732.00" y2="458.00" stroke="#d7e1e7" stroke-width="1"/>
<rect x="32" y="477" width="22" height="10" fill="#dfedf3" stroke="#176b87"/>
<text x="64.00" y="488.00" font-family="Arial, Helvetica, sans-serif" font-size="16" text-anchor="start" fill="#18344a">Section wall</text>
<line x1="246.00" y1="482.00" x2="276.00" y2="482.00" stroke="#176b87" stroke-width="1" stroke-dasharray="6 4"/>
<text x="287.00" y="488.00" font-family="Arial, Helvetica, sans-serif" font-size="16" text-anchor="start" fill="#18344a">Wall midline</text>
<circle cx="495" cy="482" r="4" fill="#b65020"/>
<text x="510.00" y="488.00" font-family="Arial, Helvetica, sans-serif" font-size="16" text-anchor="start" fill="#18344a">C · computed centroid</text>
<text x="28.00" y="522.00" font-family="Arial, Helvetica, sans-serif" font-size="15" text-anchor="start" fill="#18344a">Flange widths start at the web midline; web height is the clear gap.</text>
</svg>
