<?xml version="1.0" encoding="UTF-8"?>
<svg xmlns="http://www.w3.org/2000/svg" viewBox="0 0 680 430" role="img" aria-labelledby="title desc">
<title id="title">blade_section geometry</title>
<desc id="desc">A blade web rises in positive z from the skin-face construction datum.</desc>
<defs>
<marker id="arrow" viewBox="0 0 10 10" refX="5" refY="5" markerWidth="6" markerHeight="6" orient="auto-start-reverse">
<path d="M 0 0 L 10 5 L 0 10 z" fill="#475569"/>
</marker>
</defs>
<rect x="0" y="0" width="680" height="430" fill="#ffffff"/>
<text x="28" y="34" class="title" font-family="Inter, Arial, sans-serif" font-size="20" font-weight="700" fill="#0f172a">blade_section geometry</text>
<rect x="28.00" y="297.10" width="624.00" height="25.15" fill="#e2e8f0"/>
<line x1="28.00" y1="297.10" x2="652.00" y2="297.10" stroke="#0f172a" stroke-width="1.5" stroke-dasharray="5 4"/>
<line x1="28.00" y1="309.68" x2="652.00" y2="309.68" stroke="#94a3b8" stroke-width="1.2" stroke-dasharray="3 5"/>
<text x="444.00" y="289.10" font-family="Inter, Arial, sans-serif" font-size="12" fill="#334155">section datum z = 0 / skin face</text>
<text x="444.00" y="301.68" font-family="Inter, Arial, sans-serif" font-size="12" fill="#64748b">skin reference surface</text>
<line x1="313.65" y1="297.10" x2="361.56" y2="297.10" stroke="#334155" stroke-width="1.6" marker-end="url(#arrow)"/>
<line x1="313.65" y1="297.10" x2="313.65" y2="252.20" stroke="#334155" stroke-width="1.6" marker-end="url(#arrow)"/>
<text x="369.56" y="301.10" font-family="Inter, Arial, sans-serif" font-size="12" fill="#334155">+y</text>
<text x="320.65" y="247.20" font-family="Inter, Arial, sans-serif" font-size="12" fill="#334155">+z / +n</text>
<polygon points="329.82,297.10 329.82,105.49 350.18,105.49 350.18,297.10" fill="#bfdbfe" stroke="#1d4ed8" stroke-width="1.8"/>
<line x1="340.00" y1="297.10" x2="340.00" y2="105.49" stroke="#1e3a8a" stroke-width="1" stroke-dasharray="4 3"/>
<line x1="296.89" y1="297.10" x2="296.89" y2="105.49" stroke="#475569" stroke-width="1.3" marker-start="url(#arrow)" marker-end="url(#arrow)"/>
<text x="309.89" y="193.30" font-family="Inter, Arial, sans-serif" font-size="12" text-anchor="middle" fill="#334155">height</text>
<line x1="329.82" y1="219.26" x2="350.18" y2="219.26" stroke="#475569" stroke-width="1.3" marker-start="url(#arrow)" marker-end="url(#arrow)"/>
<text x="340.00" y="211.26" font-family="Inter, Arial, sans-serif" font-size="12" text-anchor="middle" fill="#334155">thickness</text>
<circle cx="340.00" cy="201.30" r="4.5" fill="#dc2626"/>
<line x1="331.00" y1="201.30" x2="349.00" y2="201.30" stroke="#dc2626" stroke-width="1.2"/>
<line x1="340.00" y1="192.30" x2="340.00" y2="210.30" stroke="#dc2626" stroke-width="1.2"/>
<text x="352.00" y="191.30" font-family="Inter, Arial, sans-serif" font-size="12" fill="#991b1b">centroid zc</text>
<text x="340.00" y="219.30" font-family="Inter, Arial, sans-serif" font-size="11" text-anchor="middle" fill="#1e3a8a">blade web</text>
<rect x="28" y="374" width="624" height="34" rx="4" fill="#f8fafc" stroke="#cbd5e1"/>
<text x="42" y="396" font-family="Inter, Arial, sans-serif" font-size="13" fill="#334155">Web root touches z = 0; centroid_z is measured upward from that datum.</text>
</svg>
