<?xml version="1.0" encoding="UTF-8"?>
<svg xmlns="http://www.w3.org/2000/svg" viewBox="0 0 680 430" role="img" aria-labelledby="title desc">
<title id="title">channel_section geometry</title>
<desc id="desc">A channel section has top and bottom flanges on the same side of the web.</desc>
<defs>
<marker id="arrow" viewBox="0 0 10 10" refX="5" refY="5" markerWidth="6" markerHeight="6" orient="auto-start-reverse">
<path d="M 0 0 L 10 5 L 0 10 z" fill="#475569"/>
</marker>
</defs>
<rect x="0" y="0" width="680" height="430" fill="#ffffff"/>
<text x="28" y="34" class="title" font-family="Inter, Arial, sans-serif" font-size="20" font-weight="700" fill="#0f172a">channel_section geometry</text>
<rect x="28.00" y="292.09" width="624.00" height="27.62" fill="#e2e8f0"/>
<line x1="28.00" y1="292.09" x2="652.00" y2="292.09" stroke="#0f172a" stroke-width="1.5" stroke-dasharray="5 4"/>
<line x1="28.00" y1="305.91" x2="652.00" y2="305.91" stroke="#94a3b8" stroke-width="1.2" stroke-dasharray="3 5"/>
<text x="444.00" y="284.09" font-family="Inter, Arial, sans-serif" font-size="12" fill="#334155">section datum z = 0 / skin face</text>
<text x="444.00" y="297.91" font-family="Inter, Arial, sans-serif" font-size="12" fill="#64748b">skin reference surface</text>
<line x1="269.30" y1="292.09" x2="321.91" y2="292.09" stroke="#334155" stroke-width="1.6" marker-end="url(#arrow)"/>
<line x1="269.30" y1="292.09" x2="269.30" y2="242.77" stroke="#334155" stroke-width="1.6" marker-end="url(#arrow)"/>
<text x="329.91" y="296.09" font-family="Inter, Arial, sans-serif" font-size="12" fill="#334155">+y</text>
<text x="276.30" y="237.77" font-family="Inter, Arial, sans-serif" font-size="12" fill="#334155">+z / +n</text>
<polygon points="295.60,272.36 384.40,272.36 384.40,292.09 295.60,292.09" fill="#bfdbfe" stroke="#1d4ed8" stroke-width="1.8"/>
<line x1="295.60" y1="282.23" x2="384.40" y2="282.23" stroke="#1e3a8a" stroke-width="1" stroke-dasharray="4 3"/>
<polygon points="287.71,272.36 287.71,117.80 303.50,117.80 303.50,272.36" fill="#bfdbfe" stroke="#1d4ed8" stroke-width="1.8"/>
<line x1="295.60" y1="272.36" x2="295.60" y2="117.80" stroke="#1e3a8a" stroke-width="1" stroke-dasharray="4 3"/>
<polygon points="295.60,98.07 384.40,98.07 384.40,117.80 295.60,117.80" fill="#bfdbfe" stroke="#1d4ed8" stroke-width="1.8"/>
<line x1="295.60" y1="107.93" x2="384.40" y2="107.93" stroke="#1e3a8a" stroke-width="1" stroke-dasharray="4 3"/>
<line x1="295.60" y1="314.46" x2="384.40" y2="314.46" stroke="#475569" stroke-width="1.3" marker-start="url(#arrow)" marker-end="url(#arrow)"/>
<text x="340.00" y="306.46" font-family="Inter, Arial, sans-serif" font-size="12" text-anchor="middle" fill="#334155">flange_width</text>
<line x1="257.46" y1="272.36" x2="257.46" y2="117.80" stroke="#475569" stroke-width="1.3" marker-start="url(#arrow)" marker-end="url(#arrow)"/>
<text x="270.46" y="187.08" font-family="Inter, Arial, sans-serif" font-size="12" text-anchor="middle" fill="#334155">web_height</text>
<line x1="398.21" y1="117.80" x2="398.21" y2="98.07" stroke="#475569" stroke-width="1.3" marker-start="url(#arrow)" marker-end="url(#arrow)"/>
<text x="411.21" y="99.93" font-family="Inter, Arial, sans-serif" font-size="12" text-anchor="middle" fill="#334155">flange_thickness</text>
<line x1="287.71" y1="225.66" x2="303.50" y2="225.66" stroke="#475569" stroke-width="1.3" marker-start="url(#arrow)" marker-end="url(#arrow)"/>
<text x="295.60" y="217.66" font-family="Inter, Arial, sans-serif" font-size="12" text-anchor="middle" fill="#334155">web_thickness</text>
<circle cx="325.86" cy="196.72" r="4.5" fill="#dc2626"/>
<line x1="316.86" y1="196.72" x2="334.86" y2="196.72" stroke="#dc2626" stroke-width="1.2"/>
<line x1="325.86" y1="187.72" x2="325.86" y2="205.72" stroke="#dc2626" stroke-width="1.2"/>
<text x="337.86" y="186.72" font-family="Inter, Arial, sans-serif" font-size="12" fill="#991b1b">centroid zc</text>
<text x="340.00" y="300.23" font-family="Inter, Arial, sans-serif" font-size="11" text-anchor="middle" fill="#1e3a8a">bottom flange</text>
<text x="295.60" y="213.08" font-family="Inter, Arial, sans-serif" font-size="11" text-anchor="middle" fill="#1e3a8a">web</text>
<text x="340.00" y="125.93" font-family="Inter, Arial, sans-serif" font-size="11" text-anchor="middle" fill="#1e3a8a">top flange</text>
<rect x="28" y="374" width="624" height="34" rx="4" fill="#f8fafc" stroke="#cbd5e1"/>
<text x="42" y="396" font-family="Inter, Arial, sans-serif" font-size="13" fill="#334155">Both flanges extend to the same +y side.</text>
</svg>
