<?xml version="1.0" encoding="UTF-8"?>
<svg xmlns="http://www.w3.org/2000/svg" viewBox="0 0 680 430" role="img" aria-labelledby="title desc">
<title id="title">tee_section geometry</title>
<desc id="desc">A tee section has a web rooted at z = 0 and a flange above the web.</desc>
<defs>
<marker id="arrow" viewBox="0 0 10 10" refX="5" refY="5" markerWidth="6" markerHeight="6" orient="auto-start-reverse">
<path d="M 0 0 L 10 5 L 0 10 z" fill="#475569"/>
</marker>
</defs>
<rect x="0" y="0" width="680" height="430" fill="#ffffff"/>
<text x="28" y="34" class="title" font-family="Inter, Arial, sans-serif" font-size="20" font-weight="700" fill="#0f172a">tee_section geometry</text>
<rect x="28.00" y="294.94" width="624.00" height="26.22" fill="#e2e8f0"/>
<line x1="28.00" y1="294.94" x2="652.00" y2="294.94" stroke="#0f172a" stroke-width="1.5" stroke-dasharray="5 4"/>
<line x1="28.00" y1="308.05" x2="652.00" y2="308.05" stroke="#94a3b8" stroke-width="1.2" stroke-dasharray="3 5"/>
<text x="444.00" y="286.94" font-family="Inter, Arial, sans-serif" font-size="12" fill="#334155">section datum z = 0 / skin face</text>
<text x="444.00" y="300.05" font-family="Inter, Arial, sans-serif" font-size="12" fill="#64748b">skin reference surface</text>
<line x1="237.01" y1="294.94" x2="286.94" y2="294.94" stroke="#334155" stroke-width="1.6" marker-end="url(#arrow)"/>
<line x1="237.01" y1="294.94" x2="237.01" y2="248.13" stroke="#334155" stroke-width="1.6" marker-end="url(#arrow)"/>
<text x="294.94" y="298.94" font-family="Inter, Arial, sans-serif" font-size="12" fill="#334155">+y</text>
<text x="244.01" y="243.13" font-family="Inter, Arial, sans-serif" font-size="12" fill="#334155">+z / +n</text>
<polygon points="332.51,294.94 332.51,126.41 347.49,126.41 347.49,294.94" fill="#bfdbfe" stroke="#1d4ed8" stroke-width="1.8"/>
<line x1="340.00" y1="294.94" x2="340.00" y2="126.41" stroke="#1e3a8a" stroke-width="1" stroke-dasharray="4 3"/>
<polygon points="261.97,107.68 418.03,107.68 418.03,126.41 261.97,126.41" fill="#bfdbfe" stroke="#1d4ed8" stroke-width="1.8"/>
<line x1="261.97" y1="117.04" x2="418.03" y2="117.04" stroke="#1e3a8a" stroke-width="1" stroke-dasharray="4 3"/>
<line x1="303.80" y1="294.94" x2="303.80" y2="126.41" stroke="#475569" stroke-width="1.3" marker-start="url(#arrow)" marker-end="url(#arrow)"/>
<text x="316.80" y="202.68" font-family="Inter, Arial, sans-serif" font-size="12" text-anchor="middle" fill="#334155">web_height</text>
<line x1="261.97" y1="86.46" x2="418.03" y2="86.46" stroke="#475569" stroke-width="1.3" marker-start="url(#arrow)" marker-end="url(#arrow)"/>
<text x="340.00" y="78.46" font-family="Inter, Arial, sans-serif" font-size="12" text-anchor="middle" fill="#334155">flange_width</text>
<line x1="428.64" y1="126.41" x2="428.64" y2="107.68" stroke="#475569" stroke-width="1.3" marker-start="url(#arrow)" marker-end="url(#arrow)"/>
<text x="441.64" y="109.04" font-family="Inter, Arial, sans-serif" font-size="12" text-anchor="middle" fill="#334155">flange_thickness</text>
<line x1="332.51" y1="210.68" x2="347.49" y2="210.68" stroke="#475569" stroke-width="1.3" marker-start="url(#arrow)" marker-end="url(#arrow)"/>
<text x="340.00" y="202.68" font-family="Inter, Arial, sans-serif" font-size="12" text-anchor="middle" fill="#334155">web_thickness</text>
<circle cx="340.00" cy="180.71" r="4.5" fill="#dc2626"/>
<line x1="331.00" y1="180.71" x2="349.00" y2="180.71" stroke="#dc2626" stroke-width="1.2"/>
<line x1="340.00" y1="171.71" x2="340.00" y2="189.71" stroke="#dc2626" stroke-width="1.2"/>
<text x="352.00" y="170.71" font-family="Inter, Arial, sans-serif" font-size="12" fill="#991b1b">centroid zc</text>
<text x="340.00" y="228.68" font-family="Inter, Arial, sans-serif" font-size="11" text-anchor="middle" fill="#1e3a8a">web</text>
<text x="340.00" y="135.04" font-family="Inter, Arial, sans-serif" font-size="11" text-anchor="middle" fill="#1e3a8a">flange</text>
<rect x="28" y="374" width="624" height="34" rx="4" fill="#f8fafc" stroke="#cbd5e1"/>
<text x="42" y="396" font-family="Inter, Arial, sans-serif" font-size="13" fill="#334155">The flange is on the +z side of the web.</text>
</svg>
