<?xml version="1.0" encoding="UTF-8"?>
<svg xmlns="http://www.w3.org/2000/svg" viewBox="0 0 680 430" role="img" aria-labelledby="title desc">
<title id="title">thin_wall_section segment coordinates</title>
<desc id="desc">A custom thin-wall segment is defined by midline endpoints and thickness.</desc>
<defs>
<marker id="arrow" viewBox="0 0 10 10" refX="5" refY="5" markerWidth="6" markerHeight="6" orient="auto-start-reverse">
<path d="M 0 0 L 10 5 L 0 10 z" fill="#475569"/>
</marker>
</defs>
<rect x="0" y="0" width="680" height="430" fill="#ffffff"/>
<text x="28" y="34" class="title" font-family="Inter, Arial, sans-serif" font-size="20" font-weight="700" fill="#0f172a">thin_wall_section segment coordinates</text>
<rect x="28.00" y="285.21" width="624.00" height="31.03" fill="#e2e8f0"/>
<line x1="28.00" y1="285.21" x2="652.00" y2="285.21" stroke="#0f172a" stroke-width="1.5" stroke-dasharray="5 4"/>
<line x1="28.00" y1="300.72" x2="652.00" y2="300.72" stroke="#94a3b8" stroke-width="1.2" stroke-dasharray="3 5"/>
<text x="444.00" y="277.21" font-family="Inter, Arial, sans-serif" font-size="12" fill="#334155">section datum z = 0 / skin face</text>
<text x="444.00" y="292.72" font-family="Inter, Arial, sans-serif" font-size="12" fill="#64748b">skin reference surface</text>
<line x1="228.46" y1="285.21" x2="287.55" y2="285.21" stroke="#334155" stroke-width="1.6" marker-end="url(#arrow)"/>
<line x1="228.46" y1="285.21" x2="228.46" y2="229.81" stroke="#334155" stroke-width="1.6" marker-end="url(#arrow)"/>
<text x="295.55" y="289.21" font-family="Inter, Arial, sans-serif" font-size="12" fill="#334155">+y</text>
<text x="235.46" y="224.81" font-family="Inter, Arial, sans-serif" font-size="12" fill="#334155">+z / +n</text>
<polygon points="249.03,240.79 418.93,104.14 430.97,119.10 261.07,255.76" fill="#bfdbfe" stroke="#1d4ed8" stroke-width="1.8"/>
<line x1="255.05" y1="248.28" x2="424.95" y2="111.62" stroke="#1e3a8a" stroke-width="1" stroke-dasharray="4 3"/>
<line x1="255.05" y1="248.28" x2="424.95" y2="111.62" stroke="#475569" stroke-width="1.3" marker-start="url(#arrow)" marker-end="url(#arrow)"/>
<text x="340.00" y="171.95" font-family="Inter, Arial, sans-serif" font-size="12" text-anchor="middle" fill="#334155">segment midline length</text>
<line x1="351.08" y1="164.07" x2="363.64" y2="179.58" stroke="#475569" stroke-width="1.3" marker-start="url(#arrow)" marker-end="url(#arrow)"/>
<text x="357.36" y="163.82" font-family="Inter, Arial, sans-serif" font-size="12" text-anchor="middle" fill="#334155">thickness</text>
<circle cx="340.00" cy="179.95" r="4.5" fill="#dc2626"/>
<line x1="331.00" y1="179.95" x2="349.00" y2="179.95" stroke="#dc2626" stroke-width="1.2"/>
<line x1="340.00" y1="170.95" x2="340.00" y2="188.95" stroke="#dc2626" stroke-width="1.2"/>
<text x="352.00" y="169.95" font-family="Inter, Arial, sans-serif" font-size="12" fill="#991b1b">centroid zc</text>
<text x="340.00" y="197.95" font-family="Inter, Arial, sans-serif" font-size="11" text-anchor="middle" fill="#1e3a8a">segment</text>
<rect x="28" y="374" width="624" height="34" rx="4" fill="#f8fafc" stroke="#cbd5e1"/>
<text x="42" y="396" font-family="Inter, Arial, sans-serif" font-size="13" fill="#334155">start_y/start_z and end_y/end_z are midline endpoints.</text>
</svg>
