<?xml version="1.0" encoding="UTF-8"?>
<svg xmlns="http://www.w3.org/2000/svg" viewBox="0 0 680 430" role="img" aria-labelledby="title desc">
<title id="title">zee_section geometry</title>
<desc id="desc">A zee section has bottom and top flanges on opposite sides of the web.</desc>
<defs>
<marker id="arrow" viewBox="0 0 10 10" refX="5" refY="5" markerWidth="6" markerHeight="6" orient="auto-start-reverse">
<path d="M 0 0 L 10 5 L 0 10 z" fill="#475569"/>
</marker>
</defs>
<rect x="0" y="0" width="680" height="430" fill="#ffffff"/>
<text x="28" y="34" class="title" font-family="Inter, Arial, sans-serif" font-size="20" font-weight="700" fill="#0f172a">zee_section geometry</text>
<rect x="28.00" y="294.26" width="624.00" height="26.55" fill="#e2e8f0"/>
<line x1="28.00" y1="294.26" x2="652.00" y2="294.26" stroke="#0f172a" stroke-width="1.5" stroke-dasharray="5 4"/>
<line x1="28.00" y1="307.54" x2="652.00" y2="307.54" stroke="#94a3b8" stroke-width="1.2" stroke-dasharray="3 5"/>
<text x="444.00" y="286.26" font-family="Inter, Arial, sans-serif" font-size="12" fill="#334155">section datum z = 0 / skin face</text>
<text x="444.00" y="299.54" font-family="Inter, Arial, sans-serif" font-size="12" fill="#64748b">skin reference surface</text>
<line x1="234.73" y1="294.26" x2="285.31" y2="294.26" stroke="#334155" stroke-width="1.6" marker-end="url(#arrow)"/>
<line x1="234.73" y1="294.26" x2="234.73" y2="246.84" stroke="#334155" stroke-width="1.6" marker-end="url(#arrow)"/>
<text x="293.31" y="298.26" font-family="Inter, Arial, sans-serif" font-size="12" fill="#334155">+y</text>
<text x="241.73" y="241.84" font-family="Inter, Arial, sans-serif" font-size="12" fill="#334155">+z / +n</text>
<polygon points="260.02,275.29 345.37,275.29 345.37,294.26 260.02,294.26" fill="#bfdbfe" stroke="#1d4ed8" stroke-width="1.8"/>
<line x1="260.02" y1="284.77" x2="345.37" y2="284.77" stroke="#1e3a8a" stroke-width="1" stroke-dasharray="4 3"/>
<polygon points="337.79,275.29 337.79,126.71 352.96,126.71 352.96,275.29" fill="#bfdbfe" stroke="#1d4ed8" stroke-width="1.8"/>
<line x1="345.37" y1="275.29" x2="345.37" y2="126.71" stroke="#1e3a8a" stroke-width="1" stroke-dasharray="4 3"/>
<polygon points="345.37,107.74 419.98,107.74 419.98,126.71 345.37,126.71" fill="#bfdbfe" stroke="#1d4ed8" stroke-width="1.8"/>
<line x1="345.37" y1="117.23" x2="419.98" y2="117.23" stroke="#1e3a8a" stroke-width="1" stroke-dasharray="4 3"/>
<line x1="260.02" y1="315.75" x2="345.37" y2="315.75" stroke="#475569" stroke-width="1.3" marker-start="url(#arrow)" marker-end="url(#arrow)"/>
<text x="302.70" y="307.75" font-family="Inter, Arial, sans-serif" font-size="12" text-anchor="middle" fill="#334155">bottom_flange_width</text>
<line x1="345.37" y1="86.88" x2="419.98" y2="86.88" stroke="#475569" stroke-width="1.3" marker-start="url(#arrow)" marker-end="url(#arrow)"/>
<text x="382.68" y="78.88" font-family="Inter, Arial, sans-serif" font-size="12" text-anchor="middle" fill="#334155">top_flange_width</text>
<line x1="308.70" y1="275.29" x2="308.70" y2="126.71" stroke="#475569" stroke-width="1.3" marker-start="url(#arrow)" marker-end="url(#arrow)"/>
<text x="321.70" y="193.00" font-family="Inter, Arial, sans-serif" font-size="12" text-anchor="middle" fill="#334155">web_height</text>
<line x1="430.73" y1="126.71" x2="430.73" y2="107.74" stroke="#475569" stroke-width="1.3" marker-start="url(#arrow)" marker-end="url(#arrow)"/>
<text x="443.73" y="109.23" font-family="Inter, Arial, sans-serif" font-size="12" text-anchor="middle" fill="#334155">flange_thickness</text>
<circle cx="340.32" cy="208.90" r="4.5" fill="#dc2626"/>
<line x1="331.32" y1="208.90" x2="349.32" y2="208.90" stroke="#dc2626" stroke-width="1.2"/>
<line x1="340.32" y1="199.90" x2="340.32" y2="217.90" stroke="#dc2626" stroke-width="1.2"/>
<text x="352.32" y="198.90" font-family="Inter, Arial, sans-serif" font-size="12" fill="#991b1b">centroid zc</text>
<text x="302.70" y="302.77" font-family="Inter, Arial, sans-serif" font-size="11" text-anchor="middle" fill="#1e3a8a">bottom flange</text>
<text x="345.37" y="219.00" font-family="Inter, Arial, sans-serif" font-size="11" text-anchor="middle" fill="#1e3a8a">web</text>
<text x="382.68" y="135.23" font-family="Inter, Arial, sans-serif" font-size="11" text-anchor="middle" fill="#1e3a8a">top flange</text>
<rect x="28" y="374" width="624" height="34" rx="4" fill="#f8fafc" stroke="#cbd5e1"/>
<text x="42" y="396" font-family="Inter, Arial, sans-serif" font-size="13" fill="#334155">Bottom and top flanges point to opposite sides in y.</text>
</svg>
